<?xml version="1.0" standalone="no"?>
<!DOCTYPE svg PUBLIC "-//W3C//DTD SVG 20010904//EN"
 "http://www.w3.org/TR/2001/REC-SVG-20010904/DTD/svg10.dtd">
<svg version="1.0" xmlns="http://www.w3.org/2000/svg"
 width="426.000000pt" height="426.000000pt" viewBox="0 0 426.000000 426.000000"
 preserveAspectRatio="xMidYMid meet">

<g transform="translate(0.000000,426.000000) scale(0.100000,-0.100000)"
fill="#000000" stroke="none">
<path d="M0 2130 l0 -2130 2130 0 2130 0 0 2130 0 2130 -2130 0 -2130 0 0
-2130z m2350 1019 c116 -67 212 -124 214 -128 6 -8 -56 -111 -67 -111 -5 0
-87 45 -183 101 -96 55 -178 99 -183 97 -4 -2 -79 -43 -165 -93 l-156 -90 0
-57 0 -57 145 85 c80 46 160 91 179 100 l33 16 232 -132 231 -133 0 -272 0
-271 -230 -133 c-156 -90 -236 -131 -248 -126 -9 3 -108 59 -219 123 l-202
117 32 57 c31 57 44 67 63 49 17 -16 327 -191 338 -191 6 0 81 40 166 89 l155
90 3 55 c2 31 1 56 -2 56 -4 0 -83 -45 -177 -100 -95 -55 -177 -96 -183 -92
-6 3 -110 64 -231 133 l-220 127 -2 273 -3 274 103 58 c56 31 158 91 227 131
69 41 129 75 133 75 4 1 102 -53 217 -120z m-984 -1502 c13 -15 24 -32 24 -38
0 -5 -76 -9 -185 -9 l-186 0 3 -102 3 -103 183 -3 c102 -1 182 -6 182 -12 0
-5 -11 -22 -24 -37 l-24 -28 -182 0 -182 0 -24 28 c-23 26 -24 36 -24 150 0
131 8 158 54 177 11 5 97 8 189 7 l169 -2 24 -28z m213 -42 c39 -41 74 -75 79
-75 4 0 38 34 75 75 63 70 71 75 108 75 58 0 50 -19 -51 -130 l-85 -92 -5 -71
c-5 -77 -13 -86 -66 -73 -22 6 -24 11 -24 74 l0 67 -91 98 c-97 104 -106 127
-46 127 30 0 44 -10 106 -75z m754 63 c12 -6 27 -18 34 -27 15 -19 17 -107 3
-116 -6 -4 -3 -16 7 -31 36 -56 12 -154 -43 -174 -14 -6 -113 -10 -220 -10
l-194 0 0 40 0 40 193 2 192 3 3 29 c2 16 -2 32 -10 37 -7 5 -95 9 -195 9
l-183 0 0 40 0 40 188 2 c185 3 187 3 190 25 l3 23 -188 2 -188 3 -3 38 -3 37
196 0 c130 0 204 -4 218 -12z m542 -8 c3 -11 3 -29 0 -40 -6 -19 -15 -20 -211
-20 l-204 0 0 33 c0 19 3 37 7 40 3 4 95 7 204 7 189 0 198 -1 204 -20z m471
-13 c21 -25 24 -38 24 -108 0 -72 -3 -82 -25 -104 -13 -14 -33 -25 -45 -25
-29 0 -25 -9 22 -57 l42 -43 -58 0 -58 0 -84 80 c-47 43 -83 82 -82 86 2 4 41
8 88 9 47 1 91 2 98 3 9 2 12 17 10 55 l-3 52 -167 3 -168 2 0 34 c0 18 3 36
7 40 5 4 90 6 191 4 l184 -3 24 -28z m-492 -113 c10 -4 16 -18 16 -40 l0 -34
-205 0 -205 0 0 33 c0 19 3 37 7 40 8 9 366 9 387 1z m24 -181 c4 -43 -3 -44
-228 -41 l-185 3 -3 38 -3 37 208 -2 208 -3 3 -32z m-1680 -173 c3 -9 -1 -11
-12 -7 -20 8 -21 -6 -1 -23 22 -18 15 -55 -9 -55 -11 0 -21 6 -24 14 -3 10 0
12 12 8 20 -8 20 -3 0 28 -13 21 -14 28 -4 40 15 18 32 15 38 -5z m222 -2 c0
-6 -7 -8 -15 -4 -20 7 -19 -8 0 -24 22 -18 15 -55 -9 -55 -11 0 -21 6 -24 14
-3 10 0 12 12 8 10 -4 16 -4 14 0 -2 5 -10 21 -18 36 -12 24 -12 30 0 37 15
10 40 2 40 -12z m100 12 c10 -6 11 -10 3 -10 -9 0 -13 -16 -13 -47 0 -67 -16
-46 -21 27 -2 44 2 49 31 30z m110 1 c0 -5 -8 -11 -17 -13 -16 -3 -16 -5 -2
-18 14 -13 14 -16 1 -30 -14 -13 -14 -15 1 -18 24 -5 21 -22 -3 -22 -17 0 -20
7 -20 49 0 45 7 57 33 60 4 1 7 -3 7 -8z m97 -23 l7 -33 6 30 c8 48 25 35 28
-22 2 -32 -1 -53 -7 -53 -6 0 -11 8 -12 18 0 14 -2 14 -9 -3 -8 -19 -9 -19
-16 5 l-8 25 -7 -25 c-5 -18 -7 -8 -8 33 -1 62 15 78 26 25z m153 11 c0 -4 -7
-6 -15 -3 -20 8 -19 -10 0 -26 20 -16 15 -54 -6 -58 -9 -2 -19 4 -23 14 -4 12
-2 15 9 10 19 -7 19 -1 -1 29 -13 20 -14 28 -4 39 12 15 40 11 40 -5z m180 -6
c0 -13 -3 -13 -15 -3 -13 11 -15 7 -15 -26 0 -28 3 -35 10 -24 11 18 25 6 16
-15 -3 -9 -14 -15 -23 -13 -22 4 -32 86 -12 99 17 10 39 0 39 -18z m110 -29
c0 -47 -23 -71 -41 -43 -15 24 -10 77 8 88 26 14 33 5 33 -45z m117 -8 c1 -25
-2 -46 -7 -46 -6 0 -10 9 -10 20 0 27 -18 25 -23 -2 -2 -13 -5 3 -6 34 -1 55
0 57 22 49 18 -7 22 -17 24 -55z m97 58 c20 -8 21 -53 1 -60 -8 -4 -15 -15
-15 -25 0 -10 -4 -19 -10 -19 -11 0 -14 93 -3 103 8 8 8 8 27 1z m124 -53 c-3
-38 -6 -46 -23 -46 -16 0 -21 8 -23 44 -3 45 9 64 35 54 10 -4 13 -19 11 -52z
m108 -1 c1 -30 0 -45 -3 -32 -5 27 -23 29 -23 2 0 -11 -4 -20 -10 -20 -11 0
-14 93 -3 104 4 4 14 5 23 4 11 -2 15 -17 16 -58z m118 -2 c5 -29 3 -48 -3
-48 -5 0 -12 6 -14 13 -4 9 -8 8 -16 -3 -8 -12 -11 -8 -11 17 0 41 18 89 29
77 5 -5 12 -30 15 -56z m111 52 c3 -5 1 -10 -4 -10 -6 0 -11 -21 -11 -47 0
-57 -18 -47 -20 12 -1 22 -2 43 -1 48 1 11 29 9 36 -3z m75 -46 c0 -34 -4 -53
-10 -49 -18 11 -12 105 7 105 2 0 3 -25 3 -56z m108 -3 c-3 -38 -6 -46 -23
-46 -16 0 -21 8 -23 44 -3 45 9 64 35 54 10 -4 13 -19 11 -52z m-1748 32 c0
-15 2 -14 15 3 18 24 18 12 1 -45 l-13 -45 -6 35 c-3 19 -8 42 -12 52 -4 10
-3 17 4 17 6 0 11 -8 11 -17z m1841 0 c1 -17 2 -17 6 0 9 35 23 16 23 -33 0
-55 -13 -65 -28 -22 l-10 27 -2 -30 -2 -30 -7 30 c-8 35 -2 75 10 75 5 0 10
-8 10 -17z"/>
<path d="M1987 2756 l-177 -101 2 -60 3 -60 161 -93 162 -92 176 102 177 103
-3 58 -3 58 -161 93 -160 93 -177 -101z"/>
<path d="M2140 1145 c0 -19 4 -35 8 -35 4 0 9 16 10 35 2 19 -2 35 -8 35 -5 0
-10 -16 -10 -35z"/>
<path d="M2250 1165 c0 -8 5 -15 10 -15 6 0 10 7 10 15 0 8 -4 15 -10 15 -5 0
-10 -7 -10 -15z"/>
<path d="M2371 1164 c0 -11 3 -14 6 -6 3 7 2 16 -1 19 -3 4 -6 -2 -5 -13z"/>
<path d="M2483 1145 c0 -22 2 -30 4 -17 2 12 2 30 0 40 -3 9 -5 -1 -4 -23z"/>
<path d="M2590 1165 c0 -8 5 -15 10 -15 6 0 10 7 10 15 0 8 -4 15 -10 15 -5 0
-10 -7 -10 -15z"/>
<path d="M2705 1140 c-3 -5 -1 -10 4 -10 6 0 11 5 11 10 0 6 -2 10 -4 10 -3 0
-8 -4 -11 -10z"/>
<path d="M3003 1145 c0 -22 2 -30 4 -17 2 12 2 30 0 40 -3 9 -5 -1 -4 -23z"/>
</g>
</svg>
